<svg version="1.1" xmlns="http://www.w3.org/2000/svg" style="display: block;" viewBox="0 0 2048 1392" width="959" height="652" preserveAspectRatio="none">
<defs>
	<linearGradient id="Gradient1" gradientUnits="userSpaceOnUse" x1="412.367" y1="649.313" x2="408.079" y2="654.336">
		<stop class="stop0" offset="0" stop-opacity="1" stop-color="rgb(62,61,60)"/>
		<stop class="stop1" offset="1" stop-opacity="1" stop-color="rgb(20,20,21)"/>
	</linearGradient>
	<linearGradient id="Gradient2" gradientUnits="userSpaceOnUse" x1="156.345" y1="444.905" x2="150.068" y2="450.332">
		<stop class="stop0" offset="0" stop-opacity="1" stop-color="rgb(67,67,68)"/>
		<stop class="stop1" offset="1" stop-opacity="1" stop-color="rgb(37,35,36)"/>
	</linearGradient>
	<linearGradient id="Gradient3" gradientUnits="userSpaceOnUse" x1="170.485" y1="477.908" x2="134.81" y2="449.236">
		<stop class="stop0" offset="0" stop-opacity="1" stop-color="rgb(78,78,78)"/>
		<stop class="stop1" offset="1" stop-opacity="1" stop-color="rgb(119,118,118)"/>
	</linearGradient>
	<linearGradient id="Gradient4" gradientUnits="userSpaceOnUse" x1="1215.13" y1="1311.9" x2="1220.78" y2="1286.08">
		<stop class="stop0" offset="0" stop-opacity="1" stop-color="rgb(15,15,16)"/>
		<stop class="stop1" offset="1" stop-opacity="1" stop-color="rgb(68,67,68)"/>
	</linearGradient>
	<linearGradient id="Gradient5" gradientUnits="userSpaceOnUse" x1="1362.81" y1="1061.27" x2="1541.9" y2="1197.26">
		<stop class="stop0" offset="0" stop-opacity="1" stop-color="rgb(70,69,69)"/>
		<stop class="stop1" offset="1" stop-opacity="1" stop-color="rgb(113,113,114)"/>
	</linearGradient>
	<linearGradient id="Gradient6" gradientUnits="userSpaceOnUse" x1="783.104" y1="920.957" x2="785.447" y2="918.255">
		<stop class="stop0" offset="0" stop-opacity="0.701961" stop-color="rgb(181,182,183)"/>
		<stop class="stop1" offset="1" stop-opacity="0.733333" stop-color="rgb(185,185,185)"/>
	</linearGradient>
</defs>
<path transform="translate(0,0)" fill="rgb(11,11,11)" d="M 185.943 330.324 C 191.137 325.866 234.323 301.293 244.168 295.59 L 363.816 225.746 L 509.725 139.537 C 542.074 120.395 575.094 100.069 609.152 84.3519 C 637.639 71.2056 680.631 68.2452 710.071 79.7391 C 740.301 86.281 770.787 113.14 795.606 131.804 L 876.995 192.568 L 1245.76 466.782 L 1576.37 714.054 C 1602.6 734.072 1628.95 753.927 1655.42 773.618 C 1676.1 789.07 1700.21 806.625 1719.54 823.662 C 1727.61 829.071 1737.34 842.54 1742.61 850.867 C 1747.88 870.166 1750.27 875.083 1746.49 894.561 C 1748.25 892.988 1748.8 892.086 1749.92 890.005 L 1751.25 889.395 L 1750.06 891.709 L 1751.39 892.799 C 1750.83 894.24 1750.18 895.76 1749.78 897.236 L 1749.63 898.927 C 1758.27 911.994 1742.94 934.838 1746.62 945.408 C 1740.69 958.22 1725.79 975.505 1713.92 983.741 C 1710.05 985.984 1706.82 988.416 1703.22 991.041 C 1698.3 995.948 1696.99 997.071 1691.13 1000.72 C 1688.71 1002.01 1687.34 1002.61 1685.26 1004.37 L 1675.89 1011.8 L 1667.19 1017.04 C 1664.23 1019.68 1660.08 1023.58 1657.01 1025.89 C 1654.98 1027.02 1650.36 1029.42 1648.64 1030.6 C 1645.63 1032.92 1642.23 1035.66 1639.18 1037.83 L 1630.18 1044.04 C 1620.38 1053.24 1606.23 1062.58 1595.22 1070.66 C 1570.85 1088.54 1545.09 1105.61 1520.6 1123.18 L 1358.35 1238.96 C 1340.81 1251.27 1291.83 1289.18 1274.17 1293.55 C 1247.36 1306.67 1209.63 1312.17 1180.14 1306.62 C 1171.18 1305.46 1161.98 1302.05 1153.42 1299.12 C 1127.84 1289.17 1096.17 1263.05 1074.8 1244.75 C 1076.79 1237.43 1069.93 1231.8 1074.21 1223.87 C 1073.28 1218.67 1079.85 1208.38 1083.52 1204.69 L 1082.87 1204.28 C 1079.15 1200.62 1075.03 1197.26 1071.03 1193.9 L 1067.28 1191.08 C 1070.33 1196.76 1071.07 1198.03 1068.51 1204.39 C 1067.15 1206.41 1062.87 1213.99 1062.02 1214.8 C 1066.26 1221.62 1065.18 1230.31 1066.85 1238.54 C 1047.71 1223.55 1029.01 1208.01 1010.78 1191.93 C 1004.85 1187.86 997.72 1182.2 991.871 1177.79 C 978.097 1167.49 960.631 1152.34 947.035 1141.19 L 849.319 1060.61 L 845.041 1057.54 L 842.943 1055.75 L 838.687 1052.69 C 821.011 1038.76 802.098 1022.26 784.538 1007.71 C 756.437 984.422 723.575 959.43 696.655 935.195 C 692.941 932.535 688.746 929.003 685.119 926.101 C 679.64 922.92 663.515 909.128 657.933 904.498 L 613.029 867.594 L 429.525 716.329 C 359.852 658.558 289.396 601.873 219.89 543.951 C 205.492 531.952 188.988 520.04 175.715 506.943 L 171.127 502.877 C 155.348 489.246 143.58 478.293 133.124 460.031 C 131.536 457.268 129.98 453.955 128.537 451.071 C 113.367 413.808 131.538 369.697 162.356 346.216 C 166.209 342.016 180.64 333.38 185.943 330.324 z M 177.315 353.802 C 127.443 396.637 170.365 428.087 205.668 456.488 L 263.747 503.161 C 267.612 506.326 277.114 513.652 280.337 516.763 C 297.648 530.413 314.84 544.212 331.911 558.161 C 338.448 563.445 351.256 574.354 357.961 578.68 L 359.172 579.502 C 377.391 595.533 400.752 613.647 419.885 628.748 L 430.087 637.252 C 442.68 647.218 457.056 659.589 469.766 668.837 C 493.004 690.847 523.563 710.813 547.822 732.282 C 551.464 735.506 561.766 744.116 565.27 746.16 C 571.808 751.942 611.69 785.135 617.478 788.451 C 620.451 791.475 637.08 804.962 640.978 807.662 C 665.484 829.139 693.945 850.309 719.234 871.649 C 721.258 873.351 726.812 877.786 728.396 879.449 C 734.233 884.091 742.202 890.056 747.668 894.862 C 756.523 902.078 768.696 912.539 777.814 918.919 C 781.154 922.74 787.309 927.209 791.459 930.453 L 802.272 939.227 C 811.364 946.696 827.556 960.807 836.786 966.902 C 840.332 970.978 855.853 983.41 860.778 986.839 C 862.654 988.635 871.449 996.061 873.626 997.263 C 877.318 1000.35 881.027 1003.42 884.753 1006.47 C 886.806 1008.15 896.19 1015.59 897.243 1017.09 C 907.036 1024.59 938.919 1051.98 946.267 1056.33 C 949.296 1058.96 952.793 1062.24 956.115 1064.36 C 960.11 1067.86 967.724 1074.73 971.955 1077.34 C 991.664 1095.51 1020.43 1117.11 1041.76 1134.69 C 1043.38 1136.08 1045.65 1137.92 1047 1139.46 C 1050.57 1140.95 1065.99 1154.44 1070.33 1157.72 C 1107.32 1185.43 1140.12 1225.33 1187.8 1233.47 C 1237.47 1241.94 1269.92 1217.61 1307.77 1190.84 L 1355.43 1157.41 L 1580.93 998.142 C 1586.64 994.01 1592.38 989.919 1598.15 985.871 C 1621.16 970.03 1643.5 952.81 1666.54 936.968 C 1680.68 927.241 1693.51 917.221 1705.44 904.867 C 1725.41 884.043 1723.55 858.69 1706.85 836.828 C 1698 826.267 1687.04 817.935 1676.04 809.81 C 1654.6 793.041 1632.9 776.614 1610.94 760.535 C 1558.02 719.181 1501.08 677.712 1447.12 637.199 L 1071.27 356.314 L 847.531 188.715 L 770.898 130.446 C 746.527 111.989 721.44 89.4554 690.899 82.8533 C 643.771 72.6656 599.948 99.9648 561.928 124.748 C 558.612 126.734 556.328 127.62 554.479 130.953 C 554.209 142.67 581.252 152.019 560.348 171.907 C 552.875 179.017 535.708 188.57 526.285 194.234 L 470.897 227.281 L 378.921 282.492 C 358.69 294.612 332.375 311.442 311.057 319.568 L 309.906 319.841 C 279.14 326.991 271.618 300.687 256.599 307.141 C 235.525 316.197 194.905 338.949 177.315 353.802 z M 189.27 435.323 C 182.336 431.988 182.681 428.927 178.4 426.187 C 170.226 420.955 173.137 418.504 169.678 414.453 L 165.985 414.352 C 163.432 410.855 164.108 381.994 164.533 376.013 C 166.809 373.004 167.117 373.566 170.932 372.048 C 170.017 384.673 169.111 407.863 173.712 419.8 C 173.526 419.319 187.203 432.12 189.27 435.323 z"/>
<path transform="translate(0,0)" fill="rgb(204,205,206)" fill-opacity="0.686275" d="M 561.928 124.748 C 599.948 99.9648 643.771 72.6656 690.899 82.8533 C 721.44 89.4554 746.527 111.989 770.898 130.446 L 847.531 188.715 L 1071.27 356.314 L 1447.12 637.199 C 1501.08 677.712 1558.02 719.181 1610.94 760.535 L 1607.93 762.711 C 1607.74 764.231 1607.35 764.446 1608.3 765.339 C 1614.9 771.565 1666.19 812.741 1671.83 814.452 L 1673.98 813.872 C 1674.8 812.368 1675.36 811.407 1676.04 809.81 C 1687.04 817.935 1698 826.267 1706.85 836.828 C 1705.22 839.337 1702.89 842.239 1703.98 845.408 C 1707.69 856.139 1712.09 856.296 1713.62 868.86 C 1715.28 882.417 1707.53 883.047 1709.95 894.181 C 1708.61 896.039 1706.48 896.478 1704.23 897.327 C 1703.55 900.085 1704.58 901.805 1705.44 904.867 C 1693.51 917.221 1680.68 927.241 1666.54 936.968 C 1643.5 952.81 1621.16 970.03 1598.15 985.871 C 1590.42 982.615 1581.84 987.768 1578.69 995.116 L 1578.85 996.949 L 1580.93 998.142 L 1355.43 1157.41 L 1307.77 1190.84 C 1269.92 1217.61 1237.47 1241.94 1187.8 1233.47 C 1140.12 1225.33 1107.32 1185.43 1070.33 1157.72 C 1065.99 1154.44 1050.57 1140.95 1047 1139.46 C 1045.65 1137.92 1043.38 1136.08 1041.76 1134.69 C 1020.43 1117.11 991.664 1095.51 971.955 1077.34 L 972.629 1076.7 C 971.865 1068.64 963.754 1061.76 956.115 1064.36 C 952.793 1062.24 949.296 1058.96 946.267 1056.33 L 946.525 1054.09 C 944.169 1051.56 942.196 1049.88 939.614 1047.63 C 942.674 1047.62 942.19 1048.08 944.359 1046.68 L 944.852 1046.97 C 930.868 1038.62 918.21 1024.35 905.053 1014.73 C 896.658 1008.59 883.923 997.392 873.626 997.263 C 871.449 996.061 862.654 988.635 860.778 986.839 C 859.926 971.743 846.935 971.079 838.578 965.909 L 836.786 966.902 C 827.556 960.807 811.364 946.696 802.272 939.227 C 804.421 936.434 803.978 937.732 804.362 934.311 C 802.754 930.973 797.436 928.495 793.902 926.163 C 793.125 917.973 783.04 913.182 776.04 911.293 C 772.868 906.822 730.93 874.006 723.663 868.88 L 719.234 871.649 C 693.945 850.309 665.484 829.139 640.978 807.662 C 640.072 803.908 627.906 789.358 623.712 787.118 C 621.551 785.963 619.539 787.521 617.478 788.451 C 616.299 776.759 572.333 745.377 565.27 746.16 C 561.766 744.116 551.464 735.506 547.822 732.282 C 523.563 710.813 493.004 690.847 469.766 668.837 C 469.586 666.493 466.695 658.612 465.068 657.934 C 455.999 654.156 451.797 651.731 446.843 642.642 C 446.376 641.786 435.216 637.138 433.549 635.524 C 426.034 628.247 419.428 621.232 411.644 614.328 C 407.13 610.296 401.408 604.741 396.801 600.606 C 394.497 600.395 392.834 600.818 391.13 598.943 C 384.599 591.752 381.501 584.912 371.833 581.506 C 366.067 579.475 365.722 579.396 359.172 579.502 L 357.961 578.68 C 357.296 562.781 341.25 562.343 340.255 560.365 C 332.62 545.187 327.955 548.013 314.449 539.254 C 311.466 537.32 309.047 531.046 306.373 528.403 C 303.286 525.764 298.346 524.403 295.27 521.426 C 285.901 512.001 279.687 506.223 267.161 501.935 C 266.05 501.555 257.57 489.937 255.542 488.57 C 249.527 484.518 243.967 481.402 238.531 476.677 C 236.214 474.551 232.52 471.823 230.001 469.89 C 222.405 465.293 215.098 455.009 208.124 450.487 C 202.072 446.563 194.266 438.275 189.27 435.323 C 187.203 432.12 173.526 419.319 173.712 419.8 C 169.111 407.863 170.017 384.673 170.932 372.048 L 171.234 369.989 C 171.859 369.252 172.16 368.897 173.088 368.504 C 180.048 365.55 178.227 359.478 177.315 353.802 C 194.905 338.949 235.525 316.197 256.599 307.141 C 271.618 300.687 279.14 326.991 309.906 319.841 L 311.057 319.568 L 311.622 321.828 C 322.76 323.035 345.548 311.083 356.223 306.05 C 359.246 304.625 369.522 296.283 373.481 293.951 C 385.383 286.939 397.159 279.792 408.59 272.008 C 413.106 268.933 417.424 270.242 420.208 268.296 C 425.208 264.801 432.121 256.564 437.328 253.517 C 441.48 251.087 449.493 250.361 454.316 247.65 C 460.124 244.296 464.747 239.317 470.392 235.738 C 476.654 231.767 483.617 229.054 489.648 224.68 C 506.577 212.404 525.515 203.36 543.554 192.895 C 548.452 190.053 553.248 186.687 557.963 183.551 C 564.124 179.454 570.483 175.814 576.97 172.281 C 583.254 153.406 578.635 152.001 564.922 140.502 C 560.576 136.858 561.572 130.06 561.928 124.748 z"/>
<path transform="translate(0,0)" fill="rgb(139,138,139)" fill-opacity="0.65098" d="M 311.057 319.568 C 332.375 311.442 358.69 294.612 378.921 282.492 L 470.897 227.281 L 526.285 194.234 C 535.708 188.57 552.875 179.017 560.348 171.907 C 581.252 152.019 554.209 142.67 554.479 130.953 C 556.328 127.62 558.612 126.734 561.928 124.748 C 561.572 130.06 560.576 136.858 564.922 140.502 C 578.635 152.001 583.254 153.406 576.97 172.281 C 570.483 175.814 564.124 179.454 557.963 183.551 C 553.248 186.687 548.452 190.053 543.554 192.895 C 525.515 203.36 506.577 212.404 489.648 224.68 C 483.617 229.054 476.654 231.767 470.392 235.738 C 464.747 239.317 460.124 244.296 454.316 247.65 C 449.493 250.361 441.48 251.087 437.328 253.517 C 432.121 256.564 425.208 264.801 420.208 268.296 C 417.424 270.242 413.106 268.933 408.59 272.008 C 397.159 279.792 385.383 286.939 373.481 293.951 C 369.522 296.283 359.246 304.625 356.223 306.05 C 345.548 311.083 322.76 323.035 311.622 321.828 L 311.057 319.568 z"/>
<path transform="translate(0,0)" fill="rgb(165,165,166)" fill-opacity="0.678431" d="M 263.747 503.161 L 205.668 456.488 C 170.365 428.087 127.443 396.637 177.315 353.802 C 178.227 359.478 180.048 365.55 173.088 368.504 C 172.16 368.897 171.859 369.252 171.234 369.989 L 170.932 372.048 C 167.117 373.566 166.809 373.004 164.533 376.013 C 164.108 381.994 163.432 410.855 165.985 414.352 L 169.678 414.453 C 173.137 418.504 170.226 420.955 178.4 426.187 C 182.681 428.927 182.336 431.988 189.27 435.323 C 194.266 438.275 202.072 446.563 208.124 450.487 C 215.098 455.009 222.405 465.293 230.001 469.89 C 232.52 471.823 236.214 474.551 238.531 476.677 C 243.967 481.402 249.527 484.518 255.542 488.57 C 257.57 489.937 266.05 501.555 267.161 501.935 C 279.687 506.223 285.901 512.001 295.27 521.426 C 298.346 524.403 303.286 525.764 306.373 528.403 C 309.047 531.046 311.466 537.32 314.449 539.254 C 327.955 548.013 332.62 545.187 340.255 560.365 C 341.25 562.343 357.296 562.781 357.961 578.68 C 351.256 574.354 338.448 563.445 331.911 558.161 C 314.84 544.212 297.648 530.413 280.337 516.763 C 277.114 513.652 267.612 506.326 263.747 503.161 z"/>
<path transform="translate(0,0)" fill="rgb(181,181,181)" fill-opacity="0.701961" d="M 359.172 579.502 C 365.722 579.396 366.067 579.475 371.833 581.506 C 381.501 584.912 384.599 591.752 391.13 598.943 C 392.834 600.818 394.497 600.395 396.801 600.606 C 401.408 604.741 407.13 610.296 411.644 614.328 C 419.428 621.232 426.034 628.247 433.549 635.524 C 435.216 637.138 446.376 641.786 446.843 642.642 C 451.797 651.731 455.999 654.156 465.068 657.934 C 466.695 658.612 469.586 666.493 469.766 668.837 C 457.056 659.589 442.68 647.218 430.087 637.252 L 419.885 628.748 C 400.752 613.647 377.391 595.533 359.172 579.502 z"/>
<path transform="translate(0,0)" fill="rgb(181,181,181)" fill-opacity="0.705882" d="M 1610.94 760.535 C 1632.9 776.614 1654.6 793.041 1676.04 809.81 C 1675.36 811.407 1674.8 812.368 1673.98 813.872 L 1671.83 814.452 C 1666.19 812.741 1614.9 771.565 1608.3 765.339 C 1607.35 764.446 1607.74 764.231 1607.93 762.711 L 1610.94 760.535 z"/>
<path transform="translate(0,0)" fill="rgb(181,181,181)" fill-opacity="0.717647" d="M 873.626 997.263 C 883.923 997.392 896.658 1008.59 905.053 1014.73 C 918.21 1024.35 930.868 1038.62 944.852 1046.97 L 944.359 1046.68 C 942.19 1048.08 942.674 1047.62 939.614 1047.63 C 942.196 1049.88 944.169 1051.56 946.525 1054.09 L 946.267 1056.33 C 938.919 1051.98 907.036 1024.59 897.243 1017.09 C 896.19 1015.59 886.806 1008.15 884.753 1006.47 C 881.027 1003.42 877.318 1000.35 873.626 997.263 z"/>
<path transform="translate(0,0)" fill="rgb(181,181,181)" fill-opacity="0.713725" d="M 1706.85 836.828 C 1723.55 858.69 1725.41 884.043 1705.44 904.867 C 1704.58 901.805 1703.55 900.085 1704.23 897.327 C 1706.48 896.478 1708.61 896.039 1709.95 894.181 C 1707.53 883.047 1715.28 882.417 1713.62 868.86 C 1712.09 856.296 1707.69 856.139 1703.98 845.408 C 1702.89 842.239 1705.22 839.337 1706.85 836.828 z"/>
<path transform="translate(0,0)" fill="rgb(181,181,181)" fill-opacity="0.701961" d="M 719.234 871.649 L 723.663 868.88 C 730.93 874.006 772.868 906.822 776.04 911.293 C 775.501 914.857 776.157 915.479 777.814 918.919 C 768.696 912.539 756.523 902.078 747.668 894.862 C 742.202 890.056 734.233 884.091 728.396 879.449 C 726.812 877.786 721.258 873.351 719.234 871.649 z"/>
<path transform="translate(0,0)" fill="rgb(181,181,181)" fill-opacity="0.701961" d="M 565.27 746.16 C 572.333 745.377 616.299 776.759 617.478 788.451 C 611.69 785.135 571.808 751.942 565.27 746.16 z"/>
<path transform="translate(0,0)" fill="url(#Gradient6)" d="M 776.04 911.293 C 783.04 913.182 793.125 917.973 793.902 926.163 L 791.791 925.89 C 791.699 927.412 791.589 928.933 791.459 930.453 C 787.309 927.209 781.154 922.74 777.814 918.919 C 776.157 915.479 775.501 914.857 776.04 911.293 z"/>
<path transform="translate(0,0)" fill="rgb(181,181,181)" fill-opacity="0.709804" d="M 836.786 966.902 L 838.578 965.909 C 846.935 971.079 859.926 971.743 860.778 986.839 C 855.853 983.41 840.332 970.978 836.786 966.902 z"/>
<path transform="translate(0,0)" fill="rgb(181,181,181)" fill-opacity="0.717647" d="M 617.478 788.451 C 619.539 787.521 621.551 785.963 623.712 787.118 C 627.906 789.358 640.072 803.908 640.978 807.662 C 637.08 804.962 620.451 791.475 617.478 788.451 z"/>
<path transform="translate(0,0)" fill="rgb(181,181,181)" fill-opacity="0.701961" d="M 1580.93 998.142 L 1578.85 996.949 L 1578.69 995.116 C 1581.84 987.768 1590.42 982.615 1598.15 985.871 C 1592.38 989.919 1586.64 994.01 1580.93 998.142 z"/>
<path transform="translate(0,0)" fill="rgb(181,181,181)" fill-opacity="0.721569" d="M 956.115 1064.36 C 963.754 1061.76 971.865 1068.64 972.629 1076.7 L 971.955 1077.34 C 967.724 1074.73 960.11 1067.86 956.115 1064.36 z"/>
<path transform="translate(0,0)" fill="rgb(181,181,181)" fill-opacity="0.721569" d="M 791.459 930.453 C 791.589 928.933 791.699 927.412 791.791 925.89 L 793.902 926.163 C 797.436 928.495 802.754 930.973 804.362 934.311 C 803.978 937.732 804.421 936.434 802.272 939.227 L 791.459 930.453 z"/>
<path transform="translate(0,0)" fill="rgb(28,28,28)" d="M 175.539 464.761 C 178.054 466.866 180.734 469.015 183.101 471.267 L 267.224 540.783 C 275.388 547.397 303.665 568.552 309.052 574.788 C 316.916 579.883 326.294 588.804 333.987 594.611 C 355.762 611.046 379.495 633.75 400.842 649.843 C 405.011 652.878 413.665 658.744 416.722 662.319 C 455.565 696.299 499.355 727.214 538.506 761.15 C 543.938 765.858 550.009 770.526 555.818 774.76 L 557.195 775.58 L 559.475 773.801 C 595.92 801.181 629.068 828.329 664.224 857.268 C 677.9 868.526 699.085 887.181 712.617 896.559 C 716.188 899.507 728.303 909.889 731.6 911.857 L 732.943 908.972 C 733.726 905.204 734.688 904.307 737.045 901.332 C 737.47 900.901 737.894 900.469 738.319 900.038 L 738.952 899.433 C 742.35 896.142 743.218 896.064 747.668 894.862 C 756.523 902.078 768.696 912.539 777.814 918.919 C 781.154 922.74 787.309 927.209 791.459 930.453 L 802.272 939.227 C 811.364 946.696 827.556 960.807 836.786 966.902 C 840.332 970.978 855.853 983.41 860.778 986.839 C 862.654 988.635 871.449 996.061 873.626 997.263 C 877.318 1000.35 881.027 1003.42 884.753 1006.47 C 886.806 1008.15 896.19 1015.59 897.243 1017.09 C 907.036 1024.59 938.919 1051.98 946.267 1056.33 C 949.296 1058.96 952.793 1062.24 956.115 1064.36 C 960.11 1067.86 967.724 1074.73 971.955 1077.34 C 991.664 1095.51 1020.43 1117.11 1041.76 1134.69 C 1043.38 1136.08 1045.65 1137.92 1047 1139.46 C 1044.67 1139.25 1043.6 1138.83 1041.46 1137.87 C 1037.37 1138.3 1031.46 1139.51 1028.69 1142.72 C 1028.02 1146.47 1028.08 1147.9 1031.23 1150.67 C 1033.03 1150.15 1034.05 1149.84 1035.91 1149.52 C 1032.5 1155.99 1027.3 1150.74 1021.18 1153.52 C 1032.27 1162.73 1043.23 1173.12 1054.45 1181.7 C 1057.76 1184.01 1064.62 1188.55 1067.28 1191.08 C 1070.33 1196.76 1071.07 1198.03 1068.51 1204.39 C 1067.15 1206.41 1062.87 1213.99 1062.02 1214.8 C 1066.26 1221.62 1065.18 1230.31 1066.85 1238.54 C 1047.71 1223.55 1029.01 1208.01 1010.78 1191.93 C 1004.85 1187.86 997.72 1182.2 991.871 1177.79 C 978.097 1167.49 960.631 1152.34 947.035 1141.19 L 849.319 1060.61 L 845.041 1057.54 L 842.943 1055.75 L 838.687 1052.69 C 821.011 1038.76 802.098 1022.26 784.538 1007.71 C 756.437 984.422 723.575 959.43 696.655 935.195 C 692.941 932.535 688.746 929.003 685.119 926.101 C 679.64 922.92 663.515 909.128 657.933 904.498 L 613.029 867.594 L 429.525 716.329 C 359.852 658.558 289.396 601.873 219.89 543.951 C 205.492 531.952 188.988 520.04 175.715 506.943 L 171.127 502.877 C 171.155 498.416 169.58 490.317 168.808 485.629 C 172.325 482.375 169.295 481.902 170.618 474.841 L 171.601 471.551 C 172.898 470.213 174.574 466.597 175.539 464.761 z"/>
<path transform="translate(0,0)" fill="rgb(71,70,71)" d="M 557.195 775.58 L 559.475 773.801 C 595.92 801.181 629.068 828.329 664.224 857.268 C 677.9 868.526 699.085 887.181 712.617 896.559 C 716.188 899.507 728.303 909.889 731.6 911.857 L 732.943 908.972 C 733.726 905.204 734.688 904.307 737.045 901.332 C 737.47 900.901 737.894 900.469 738.319 900.038 L 738.952 899.433 C 742.35 896.142 743.218 896.064 747.668 894.862 C 756.523 902.078 768.696 912.539 777.814 918.919 C 781.154 922.74 787.309 927.209 791.459 930.453 L 802.272 939.227 C 811.364 946.696 827.556 960.807 836.786 966.902 C 840.332 970.978 855.853 983.41 860.778 986.839 C 862.654 988.635 871.449 996.061 873.626 997.263 C 877.318 1000.35 881.027 1003.42 884.753 1006.47 C 886.806 1008.15 896.19 1015.59 897.243 1017.09 C 907.036 1024.59 938.919 1051.98 946.267 1056.33 C 949.296 1058.96 952.793 1062.24 956.115 1064.36 C 960.11 1067.86 967.724 1074.73 971.955 1077.34 C 991.664 1095.51 1020.43 1117.11 1041.76 1134.69 C 1043.38 1136.08 1045.65 1137.92 1047 1139.46 C 1044.67 1139.25 1043.6 1138.83 1041.46 1137.87 C 1037.37 1138.3 1031.46 1139.51 1028.69 1142.72 C 1028.02 1146.47 1028.08 1147.9 1031.23 1150.67 C 1033.03 1150.15 1034.05 1149.84 1035.91 1149.52 C 1032.5 1155.99 1027.3 1150.74 1021.18 1153.52 C 1032.27 1162.73 1043.23 1173.12 1054.45 1181.7 C 1057.76 1184.01 1064.62 1188.55 1067.28 1191.08 C 1070.33 1196.76 1071.07 1198.03 1068.51 1204.39 C 1067.15 1206.41 1062.87 1213.99 1062.02 1214.8 C 1066.26 1221.62 1065.18 1230.31 1066.85 1238.54 C 1047.71 1223.55 1029.01 1208.01 1010.78 1191.93 C 1004.85 1187.86 997.72 1182.2 991.871 1177.79 C 978.097 1167.49 960.631 1152.34 947.035 1141.19 L 849.319 1060.61 L 845.041 1057.54 C 849.837 1052.53 852.18 1055.11 854.544 1046.69 C 853.195 1045.53 850.972 1043.12 849.635 1041.76 C 843.093 1035.37 834.055 1028.24 826.896 1022.37 C 791.928 993.696 756.709 965.313 722.137 936.153 C 712.927 928.384 705.017 928.589 697.275 917.975 L 695.033 916.682 C 697.418 911.703 705.997 904.091 711.052 901.509 C 659.422 861.923 607.9 816.622 557.195 775.58 z"/>
<path transform="translate(0,0)" fill="rgb(11,11,11)" d="M 737.045 901.332 C 737.47 900.901 737.894 900.469 738.319 900.038 L 738.952 899.433 C 742.35 896.142 743.218 896.064 747.668 894.862 C 756.523 902.078 768.696 912.539 777.814 918.919 C 781.154 922.74 787.309 927.209 791.459 930.453 L 802.272 939.227 C 811.364 946.696 827.556 960.807 836.786 966.902 C 840.332 970.978 855.853 983.41 860.778 986.839 C 862.654 988.635 871.449 996.061 873.626 997.263 C 877.318 1000.35 881.027 1003.42 884.753 1006.47 C 886.806 1008.15 896.19 1015.59 897.243 1017.09 C 907.036 1024.59 938.919 1051.98 946.267 1056.33 C 949.296 1058.96 952.793 1062.24 956.115 1064.36 C 960.11 1067.86 967.724 1074.73 971.955 1077.34 C 991.664 1095.51 1020.43 1117.11 1041.76 1134.69 C 1043.38 1136.08 1045.65 1137.92 1047 1139.46 C 1044.67 1139.25 1043.6 1138.83 1041.46 1137.87 C 1037.37 1138.3 1031.46 1139.51 1028.69 1142.72 C 1028.02 1146.47 1028.08 1147.9 1031.23 1150.67 C 1033.03 1150.15 1034.05 1149.84 1035.91 1149.52 C 1032.5 1155.99 1027.3 1150.74 1021.18 1153.52 L 1018.99 1152.78 L 1021.13 1152.11 L 1021.93 1150.53 C 1020.8 1148.11 896.958 1045.44 882.977 1036.87 C 885.473 1034.97 885.516 1034.87 886.959 1032.12 L 885.831 1030.19 L 881.173 1029.3 C 879.172 1026.54 872.898 1022.19 869.537 1020.97 L 866.817 1022.24 C 837.548 998.886 808.55 975.198 779.829 951.178 C 763.81 937.997 747.484 925.325 731.6 911.857 L 732.943 908.972 C 733.726 905.204 734.688 904.307 737.045 901.332 z"/>
<path transform="translate(0,0)" fill="rgb(28,28,28)" d="M 881.173 1029.3 L 887.379 1027.98 L 888.797 1028.91 C 889.306 1034.65 888.403 1034.66 893.726 1037.95 C 928.725 1067.62 964.531 1096.07 1000.05 1125.1 C 1008.26 1131.81 1017.38 1138.85 1025.11 1145.99 C 1030.77 1140.73 1034.29 1137.01 1041.76 1134.69 C 1043.38 1136.08 1045.65 1137.92 1047 1139.46 C 1044.67 1139.25 1043.6 1138.83 1041.46 1137.87 C 1037.37 1138.3 1031.46 1139.51 1028.69 1142.72 C 1028.02 1146.47 1028.08 1147.9 1031.23 1150.67 C 1033.03 1150.15 1034.05 1149.84 1035.91 1149.52 C 1032.5 1155.99 1027.3 1150.74 1021.18 1153.52 L 1018.99 1152.78 L 1021.13 1152.11 L 1021.93 1150.53 C 1020.8 1148.11 896.958 1045.44 882.977 1036.87 C 885.473 1034.97 885.516 1034.87 886.959 1032.12 L 885.831 1030.19 L 881.173 1029.3 z"/>
<path transform="translate(0,0)" fill="rgb(28,28,28)" d="M 732.943 908.972 C 747.771 919.307 868.063 1019.91 871.021 1019.28 C 873.208 1018.82 875.298 1016.59 876.95 1015.16 L 878.29 1017.51 C 876.286 1021.23 875.997 1020.33 876.619 1023.57 C 882.174 1022.02 880.281 1020.61 883.851 1022.57 L 884.407 1024.29 L 881.173 1029.3 C 879.172 1026.54 872.898 1022.19 869.537 1020.97 L 866.817 1022.24 C 837.548 998.886 808.55 975.198 779.829 951.178 C 763.81 937.997 747.484 925.325 731.6 911.857 L 732.943 908.972 z"/>
<path transform="translate(0,0)" fill="rgb(28,28,28)" d="M 884.753 1006.47 C 886.806 1008.15 896.19 1015.59 897.243 1017.09 L 896.939 1018.31 C 895.733 1023.23 897.482 1022.58 894.014 1027.23 C 889.105 1022.56 883.718 1017.63 879.032 1012.8 L 884.753 1006.47 z"/>
<path transform="translate(0,0)" fill="rgb(28,28,28)" d="M 854.544 1046.69 C 859.021 1049.35 862.716 1047.61 864.736 1052.21 C 865.047 1052.92 865.687 1053.58 866.213 1054.14 C 897.37 1077.98 928.842 1105.96 959.978 1130.42 C 968.968 1137.48 997.43 1160.54 1004.08 1167.7 C 1000.09 1172.74 998.102 1175.27 991.871 1177.79 C 978.097 1167.49 960.631 1152.34 947.035 1141.19 L 849.319 1060.61 L 845.041 1057.54 C 849.837 1052.53 852.18 1055.11 854.544 1046.69 z"/>
<path transform="translate(0,0)" fill="rgb(47,47,48)" d="M 854.544 1046.69 C 859.021 1049.35 862.716 1047.61 864.736 1052.21 C 865.047 1052.92 865.687 1053.58 866.213 1054.14 C 860.155 1058.32 855.54 1057.1 849.319 1060.61 L 845.041 1057.54 C 849.837 1052.53 852.18 1055.11 854.544 1046.69 z"/>
<path transform="translate(0,0)" fill="rgb(11,11,11)" d="M 557.195 775.58 L 559.475 773.801 C 595.92 801.181 629.068 828.329 664.224 857.268 C 677.9 868.526 699.085 887.181 712.617 896.559 C 716.188 899.507 728.303 909.889 731.6 911.857 C 747.484 925.325 763.81 937.997 779.829 951.178 C 808.55 975.198 837.548 998.886 866.817 1022.24 L 869.537 1020.97 C 872.898 1022.19 879.172 1026.54 881.173 1029.3 L 885.831 1030.19 L 886.959 1032.12 C 885.516 1034.87 885.473 1034.97 882.977 1036.87 C 896.958 1045.44 1020.8 1148.11 1021.93 1150.53 L 1021.13 1152.11 L 1018.99 1152.78 C 1009.39 1145.7 997.003 1134.76 987.504 1127 C 966.626 1110.15 945.84 1093.19 925.145 1076.12 L 725.053 913.405 C 720.19 908.998 716.229 905.559 711.052 901.509 C 659.422 861.923 607.9 816.622 557.195 775.58 z"/>
<path transform="translate(0,0)" fill="rgb(47,47,48)" d="M 866.817 1022.24 L 869.537 1020.97 C 872.898 1022.19 879.172 1026.54 881.173 1029.3 L 885.831 1030.19 L 886.959 1032.12 C 885.516 1034.87 885.473 1034.97 882.977 1036.87 C 875.934 1031.89 872.831 1028.38 866.817 1022.24 z"/>
<path transform="translate(0,0)" fill="rgb(28,28,28)" d="M 1021.77 1180.25 C 1033.55 1192.49 1052.77 1203.6 1062.02 1214.8 C 1066.26 1221.62 1065.18 1230.31 1066.85 1238.54 C 1047.71 1223.55 1029.01 1208.01 1010.78 1191.93 C 1013.58 1187.15 1016.23 1181.76 1021.77 1180.25 z"/>
<path transform="translate(0,0)" fill="rgb(47,47,48)" d="M 1004.08 1167.7 L 1005.02 1170.11 L 1006.58 1170.28 L 1009.37 1167.6 C 1013.38 1171.59 1017.54 1175.44 1021.84 1179.13 L 1021.77 1180.25 C 1016.23 1181.76 1013.58 1187.15 1010.78 1191.93 C 1004.85 1187.86 997.72 1182.2 991.871 1177.79 C 998.102 1175.27 1000.09 1172.74 1004.08 1167.7 z"/>
<path transform="translate(0,0)" fill="rgb(91,92,93)" d="M 711.052 901.509 C 716.229 905.559 720.19 908.998 725.053 913.405 C 719 920.898 705.947 922.167 697.275 917.975 L 695.033 916.682 C 697.418 911.703 705.997 904.091 711.052 901.509 z"/>
<path transform="translate(0,0)" fill="rgb(71,70,71)" d="M 711.453 906.682 C 712.892 908.045 712.401 907.218 712.751 909.354 C 710.616 912.88 706.52 915.435 703.134 917.924 L 702.543 916.361 C 704.257 912.875 708.454 909.477 711.453 906.682 z"/>
<path transform="translate(0,0)" fill="rgb(91,92,93)" d="M 1009.37 1167.6 C 1006.98 1162.29 1011.34 1158.59 1016.13 1156.57 L 1018.08 1156.79 L 1019.17 1158.59 C 1018.23 1160.16 1017.32 1161.75 1016.42 1163.34 C 1019.87 1164.83 1021.98 1161.89 1024.95 1163.01 C 1023.92 1165.64 1023.84 1165.69 1022.18 1168.01 L 1022.98 1168.78 C 1025.53 1168.42 1028.95 1167.42 1030.77 1168.43 C 1029.66 1171.64 1024.73 1177.36 1021.84 1179.13 C 1017.54 1175.44 1013.38 1171.59 1009.37 1167.6 z"/>
<path transform="translate(0,0)" fill="rgb(28,28,28)" d="M 1054.45 1181.7 C 1057.76 1184.01 1064.62 1188.55 1067.28 1191.08 C 1070.33 1196.76 1071.07 1198.03 1068.51 1204.39 C 1067.3 1193.54 1058.69 1194.11 1054.45 1181.7 z"/>
<path transform="translate(0,0)" fill="rgb(91,92,93)" d="M 863.268 1028.68 L 865.358 1029.43 L 865.717 1031.98 C 864.687 1033.58 864.122 1033.99 864.258 1035.84 C 866.231 1035.41 868.018 1034.9 869.954 1034.36 C 873.338 1037.18 869.044 1037.13 871.566 1040.72 C 874.126 1039.78 874.413 1039.62 877.095 1039.45 C 877.571 1042.24 877.149 1041.83 875.775 1044.96 C 874.455 1046.02 872.815 1047.06 871.399 1048.02 C 864.101 1048.4 857.661 1041.74 856.779 1034.63 C 857.964 1030.73 858.81 1031.52 863.268 1028.68 z"/>
<path transform="translate(0,0)" fill="rgb(71,70,71)" d="M 175.539 464.761 C 178.054 466.866 180.734 469.015 183.101 471.267 L 267.224 540.783 C 275.388 547.397 303.665 568.552 309.052 574.788 C 316.916 579.883 326.294 588.804 333.987 594.611 C 355.762 611.046 379.495 633.75 400.842 649.843 C 405.011 652.878 413.665 658.744 416.722 662.319 C 455.565 696.299 499.355 727.214 538.506 761.15 C 543.938 765.858 550.009 770.526 555.818 774.76 L 557.195 775.58 C 607.9 816.622 659.422 861.923 711.052 901.509 C 705.997 904.091 697.418 911.703 695.033 916.682 C 689.718 910.358 670.461 894.763 662.876 888.428 C 637.41 867.157 610.894 846.592 585.391 825.276 C 576.564 817.898 566.027 810.648 557.694 803.158 C 552.405 799.249 546.229 793.608 541.16 789.225 C 529.132 781.612 433.381 702.436 426.355 693.321 C 425.115 690.68 423.855 688.028 422.134 685.659 C 417.279 678.974 336.474 610.976 330.401 610.469 C 328.28 610.293 326.893 612.129 325.371 613.392 L 324.554 612.881 C 322.787 608.334 301.733 595.805 295.407 586.269 C 287.847 569.882 249.583 544.075 233.872 533.141 C 231.604 531.563 229.209 533.126 227.079 534.144 C 214.722 521.91 186.211 502.151 178.162 493.036 C 174.799 496.809 178.569 501.36 175.715 506.943 L 171.127 502.877 C 171.155 498.416 169.58 490.317 168.808 485.629 C 172.325 482.375 169.295 481.902 170.618 474.841 L 171.601 471.551 C 172.898 470.213 174.574 466.597 175.539 464.761 z"/>
<path transform="translate(0,0)" fill="rgb(47,47,48)" d="M 175.539 464.761 C 178.054 466.866 180.734 469.015 183.101 471.267 L 267.224 540.783 C 275.388 547.397 303.665 568.552 309.052 574.788 C 305.111 573.561 293.446 565.827 290.115 563.086 C 261.807 539.789 234.78 515.117 205.846 492.554 C 198.512 486.835 189.794 480.015 183.418 473.413 C 177.422 481.031 173.784 483.141 178.162 493.036 C 174.799 496.809 178.569 501.36 175.715 506.943 L 171.127 502.877 C 171.155 498.416 169.58 490.317 168.808 485.629 C 172.325 482.375 169.295 481.902 170.618 474.841 L 171.601 471.551 C 172.898 470.213 174.574 466.597 175.539 464.761 z"/>
<path transform="translate(0,0)" fill="rgb(28,28,28)" d="M 175.539 464.761 C 178.054 466.866 180.734 469.015 183.101 471.267 C 179.881 474.471 179.842 475.93 175.895 477.828 C 172.371 477.672 173.91 478.233 171.115 476.086 L 170.618 474.841 L 171.601 471.551 C 172.898 470.213 174.574 466.597 175.539 464.761 z"/>
<path transform="translate(0,0)" fill="rgb(91,92,93)" d="M 541.16 789.225 C 543.578 785.17 545.483 781.95 550.103 780.712 C 559.202 782.78 560.79 796.685 557.694 803.158 C 552.405 799.249 546.229 793.608 541.16 789.225 z"/>
<path transform="translate(0,0)" fill="rgb(11,11,11)" d="M 325.371 613.392 C 326.893 612.129 328.28 610.293 330.401 610.469 C 336.474 610.976 417.279 678.974 422.134 685.659 C 423.855 688.028 425.115 690.68 426.355 693.321 C 425.883 696.028 425.014 701.252 422.896 702.827 C 420.619 699.83 421.47 697.744 420.384 693.873 C 417.7 685.713 376.316 653.417 366.307 645.031 C 365.417 643.635 356.954 637.006 355.306 635.698 C 348.377 629.482 334.905 615.693 326.56 614.47 L 325.371 613.392 z"/>
<path transform="translate(0,0)" fill="rgb(11,11,11)" d="M 227.079 534.144 C 229.209 533.126 231.604 531.563 233.872 533.141 C 249.583 544.075 287.847 569.882 295.407 586.269 C 294.673 589.704 294.52 590.854 292.505 593.706 L 293.935 591.889 L 293.329 593.262 L 292.314 593.629 C 290.643 588.561 290.017 585.307 285.803 581.714 C 278.509 574.606 268.27 566.88 260.126 560.406 C 252.689 553.115 235.951 538.804 227.079 534.144 z"/>
<path transform="translate(0,0)" fill="rgb(71,70,71)" d="M 366.307 645.031 C 376.316 653.417 417.7 685.713 420.384 693.873 C 418.819 693.568 371.452 651.704 367.147 647.875 C 367.147 647.875 366.415 645.397 366.307 645.031 z"/>
<path transform="translate(0,0)" fill="rgb(47,47,48)" d="M 849.635 1041.76 C 850.972 1043.12 853.195 1045.53 854.544 1046.69 C 852.18 1055.11 849.837 1052.53 845.041 1057.54 L 842.943 1055.75 L 838.687 1052.69 C 840.415 1050.41 847.304 1044.02 849.635 1041.76 z"/>
<path transform="translate(0,0)" fill="rgb(28,28,28)" d="M 842.943 1055.75 C 848.062 1051.32 845.645 1048.24 854.544 1046.69 C 852.18 1055.11 849.837 1052.53 845.041 1057.54 L 842.943 1055.75 z"/>
<path transform="translate(0,0)" fill="rgb(47,47,48)" d="M 326.56 614.47 C 334.905 615.693 348.377 629.482 355.306 635.698 C 353.046 636.661 354.218 636.453 351.642 636.158 C 346.098 631.94 327.986 619.635 326.56 614.47 z"/>
<path transform="translate(0,0)" fill="rgb(47,47,48)" d="M 685.119 926.101 C 686.81 923.438 687.194 922.237 689.885 920.894 L 691.44 921.474 L 691.644 922.315 C 692.11 924.183 692.135 925.46 693.561 926.597 L 697.918 927.336 C 698.596 930.083 697.772 932.353 696.655 935.195 C 692.941 932.535 688.746 929.003 685.119 926.101 z"/>
<path transform="translate(0,0)" fill="rgb(71,70,71)" d="M 285.803 581.714 L 284.051 582.309 C 277.558 577.514 264.32 568.571 259.782 562.37 L 260.126 560.406 C 268.27 566.88 278.509 574.606 285.803 581.714 z"/>
<path transform="translate(0,0)" fill="url(#Gradient5)" d="M 1741.36 915.665 C 1743.79 910.668 1746.91 900.764 1749.78 897.236 L 1749.63 898.927 C 1758.27 911.994 1742.94 934.838 1746.62 945.408 C 1740.69 958.22 1725.79 975.505 1713.92 983.741 C 1710.05 985.984 1706.82 988.416 1703.22 991.041 C 1698.3 995.948 1696.99 997.071 1691.13 1000.72 C 1688.71 1002.01 1687.34 1002.61 1685.26 1004.37 L 1675.89 1011.8 L 1667.19 1017.04 C 1664.23 1019.68 1660.08 1023.58 1657.01 1025.89 C 1654.98 1027.02 1650.36 1029.42 1648.64 1030.6 C 1645.63 1032.92 1642.23 1035.66 1639.18 1037.83 L 1630.18 1044.04 C 1620.38 1053.24 1606.23 1062.58 1595.22 1070.66 C 1570.85 1088.54 1545.09 1105.61 1520.6 1123.18 L 1358.35 1238.96 C 1340.81 1251.27 1291.83 1289.18 1274.17 1293.55 C 1247.36 1306.67 1209.63 1312.17 1180.14 1306.62 C 1171.18 1305.46 1161.98 1302.05 1153.42 1299.12 L 1167.96 1284.86 C 1169.2 1286.52 1168.41 1285.91 1170.56 1286.53 L 1175.06 1284 L 1177.7 1283.55 C 1179.48 1284.93 1179.57 1286.04 1180.26 1288.2 L 1184.1 1285.64 L 1185.67 1283.16 C 1190.05 1281.72 1191.75 1283.39 1197.39 1284.62 L 1198.73 1283.62 C 1198.46 1279.56 1196.61 1278.08 1193.95 1275.07 C 1197.57 1273.44 1201.7 1274.04 1205.72 1274.24 C 1204.39 1270.67 1204.31 1269.7 1203.9 1265.88 C 1258.98 1266.47 1300.11 1237.8 1343.23 1207.58 L 1405.7 1163.59 L 1546.05 1064.6 L 1665.04 980.199 C 1687.51 964.142 1727.64 939.452 1741.36 915.665 z"/>
<path transform="translate(0,0)" fill="rgb(11,11,11)" d="M 1741.36 915.665 C 1743.75 919.33 1742.95 918.509 1742.16 923.992 C 1725.81 955.295 1692.32 972.329 1664.8 992.38 C 1619.78 1025.18 1573.16 1056 1527.6 1087.98 C 1462.21 1133.88 1396.99 1180.11 1331.24 1225.54 C 1293.61 1251.54 1254.48 1279.56 1205.72 1274.24 C 1204.39 1270.67 1204.31 1269.7 1203.9 1265.88 C 1258.98 1266.47 1300.11 1237.8 1343.23 1207.58 L 1405.7 1163.59 L 1546.05 1064.6 L 1665.04 980.199 C 1687.51 964.142 1727.64 939.452 1741.36 915.665 z"/>
<path transform="translate(0,0)" fill="url(#Gradient4)" d="M 1175.06 1284 L 1177.7 1283.55 C 1179.48 1284.93 1179.57 1286.04 1180.26 1288.2 L 1184.1 1285.64 C 1210.31 1289.03 1236.43 1293.31 1263.04 1295.23 C 1266.84 1295.51 1269.19 1293.14 1274.17 1293.55 C 1247.36 1306.67 1209.63 1312.17 1180.14 1306.62 C 1171.18 1305.46 1161.98 1302.05 1153.42 1299.12 L 1167.96 1284.86 C 1169.2 1286.52 1168.41 1285.91 1170.56 1286.53 L 1175.06 1284 z"/>
<path transform="translate(0,0)" fill="rgb(47,47,48)" d="M 1175.06 1284 L 1177.7 1283.55 C 1179.48 1284.93 1179.57 1286.04 1180.26 1288.2 L 1180.57 1289.7 C 1173.01 1296.32 1175.24 1299 1180.14 1306.62 C 1171.18 1305.46 1161.98 1302.05 1153.42 1299.12 L 1167.96 1284.86 C 1169.2 1286.52 1168.41 1285.91 1170.56 1286.53 L 1175.06 1284 z"/>
<path transform="translate(0,0)" fill="rgb(139,138,139)" d="M 1741.36 915.665 C 1743.79 910.668 1746.91 900.764 1749.78 897.236 L 1749.63 898.927 C 1758.27 911.994 1742.94 934.838 1746.62 945.408 C 1740.69 958.22 1725.79 975.505 1713.92 983.741 C 1711.82 979.375 1714.05 979.137 1710.52 976.23 L 1707.21 976.599 L 1705.66 973.532 C 1714.42 967.999 1722.31 961.192 1729.08 953.335 C 1735.3 946.202 1743.91 933.676 1743.25 923.881 L 1742.16 923.992 C 1742.95 918.509 1743.75 919.33 1741.36 915.665 z"/>
<path transform="translate(0,0)" fill="rgb(47,47,48)" d="M 1741.36 915.665 C 1743.79 910.668 1746.91 900.764 1749.78 897.236 L 1749.63 898.927 C 1748.28 904.255 1743.74 919.202 1743.25 923.881 L 1742.16 923.992 C 1742.95 918.509 1743.75 919.33 1741.36 915.665 z"/>
<path transform="translate(0,0)" fill="rgb(11,11,11)" d="M 1648.64 1030.6 C 1648.09 1025.34 1649.04 1013.59 1656.66 1016.2 C 1658.57 1020.2 1657.64 1020.68 1657.01 1025.89 C 1654.98 1027.02 1650.36 1029.42 1648.64 1030.6 z"/>
<path transform="translate(0,0)" fill="rgb(11,11,11)" d="M 1707.21 976.599 L 1710.52 976.23 C 1714.05 979.137 1711.82 979.375 1713.92 983.741 C 1710.05 985.984 1706.82 988.416 1703.22 991.041 C 1700.72 984.386 1703.39 981.927 1707.21 976.599 z"/>
<path transform="translate(0,0)" fill="rgb(11,11,11)" d="M 1630.18 1044.04 C 1630.06 1038.09 1630.14 1030.5 1637.38 1028.54 L 1639.17 1029.58 C 1640.67 1032.7 1639.9 1034.35 1639.18 1037.83 L 1630.18 1044.04 z"/>
<path transform="translate(0,0)" fill="rgb(11,11,11)" d="M 1667.19 1017.04 C 1666.8 1010.79 1667.1 1004.23 1674.38 1001.9 L 1676.26 1002.95 C 1677.49 1006.2 1676.62 1008.33 1675.89 1011.8 L 1667.19 1017.04 z"/>
<path transform="translate(0,0)" fill="rgb(11,11,11)" d="M 1685.26 1004.37 C 1685.1 1003.71 1684.96 1003.04 1684.84 1002.38 C 1683.67 996.16 1687.32 990.181 1693.65 989.274 L 1694.65 990.456 C 1694.79 995.308 1692.13 996.018 1691.13 1000.72 C 1688.71 1002.01 1687.34 1002.61 1685.26 1004.37 z"/>
<path transform="translate(0,0)" fill="rgb(11,11,11)" d="M 1546.84 1082.81 C 1549.74 1083.15 1549.88 1083.38 1552.37 1085.08 C 1553.5 1087.67 1554.11 1088.98 1553.38 1091.88 C 1550.06 1105.07 1495.81 1137.72 1482.08 1147.3 C 1480.1 1147.73 1480.86 1147.65 1478.77 1147.23 C 1473.41 1138.4 1479.7 1129.9 1486.96 1124.98 C 1502.99 1114.11 1530.09 1090.14 1546.84 1082.81 z"/>
<path transform="translate(0,0)" fill="rgb(11,11,11)" d="M 1334.02 1240.72 C 1336.99 1242.05 1337.39 1243.48 1337.56 1246.35 C 1336.04 1250.02 1333.71 1251.71 1330.79 1254.35 C 1328.94 1254.73 1329.22 1254.5 1327.19 1254.11 C 1324.49 1248.45 1329.94 1243.8 1334.02 1240.72 z"/>
<path transform="translate(0,0)" fill="rgb(11,11,11)" d="M 1371.39 1213.61 C 1374.56 1215.41 1375.16 1215.99 1375.81 1219.46 C 1374.39 1223.25 1371.84 1224.83 1368.69 1227.49 C 1368.2 1227.61 1366.73 1227.5 1366.14 1227.49 C 1362.57 1222.5 1367.76 1216.93 1371.39 1213.61 z"/>
<path transform="translate(0,0)" fill="rgb(28,28,28)" d="M 1574.45 1069.56 L 1577.31 1070.32 C 1581.09 1076.01 1576.06 1079.77 1571.71 1083.16 C 1568.9 1081.22 1568.62 1080.26 1568.01 1077.5 C 1569.18 1073.92 1571.63 1072.2 1574.45 1069.56 z"/>
<path transform="translate(0,0)" fill="rgb(11,11,11)" d="M 1463.85 1147.77 C 1466.36 1150.11 1466.21 1151.29 1466.34 1154.06 C 1464.73 1158.15 1462.92 1159.45 1459.77 1162.39 L 1457.63 1161.85 C 1453.75 1155.99 1459.51 1151.5 1463.85 1147.77 z"/>
<path transform="translate(0,0)" fill="rgb(11,11,11)" d="M 1410.04 1187.47 L 1412.07 1188.54 C 1415.27 1194.87 1410.38 1198.11 1405.65 1201.56 L 1404.05 1201.55 L 1402.68 1200.13 C 1402.72 1193.9 1405.61 1191.22 1410.04 1187.47 z"/>
<path transform="translate(0,0)" fill="rgb(11,11,11)" d="M 1390.95 1200.7 C 1393.5 1202.28 1394.01 1203.8 1394.28 1206.53 C 1392.75 1210.28 1390.4 1211.75 1387.28 1214.4 L 1385 1214.05 C 1381.29 1208.78 1387.01 1204.04 1390.95 1200.7 z"/>
<path transform="translate(0,0)" fill="rgb(11,11,11)" d="M 1620.59 1039.78 L 1621.61 1040.85 C 1623.82 1047.87 1618.95 1051.27 1613.55 1054.54 C 1607.8 1048.75 1616.31 1042.68 1620.59 1039.78 z"/>
<path transform="translate(0,0)" fill="rgb(11,11,11)" d="M 1352.39 1227.46 C 1355.7 1229.31 1355.96 1230.66 1355.92 1233.93 C 1354.2 1237.4 1351.81 1238.88 1348.8 1241.24 L 1347.37 1240.77 C 1343.82 1235.17 1348.02 1230.89 1352.39 1227.46 z"/>
<path transform="translate(0,0)" fill="rgb(11,11,11)" d="M 1313.63 1254.32 C 1316.62 1254.69 1317.46 1255.94 1318.28 1258.5 C 1317.31 1262.24 1314.68 1264.44 1311.99 1267.2 C 1308.93 1266.98 1310.16 1267.56 1308.01 1265.91 C 1307.41 1260.99 1310.7 1257.96 1313.63 1254.32 z"/>
<path transform="translate(0,0)" fill="rgb(251,250,251)" d="M 710.071 79.7391 C 740.301 86.281 770.787 113.14 795.606 131.804 L 876.995 192.568 L 1245.76 466.782 L 1576.37 714.054 C 1602.6 734.072 1628.95 753.927 1655.42 773.618 C 1676.1 789.07 1700.21 806.625 1719.54 823.662 C 1723.28 828.573 1727.13 832.464 1730.68 836.962 C 1730.6 837.275 1729.89 840.45 1729.89 840.45 C 1738.69 857.98 1743.49 875.032 1736.6 894.152 C 1735.13 896.989 1735.04 897.313 1732.8 899.516 L 1732.15 899.559 C 1729.85 901.482 1728.71 902.196 1726.14 903.781 L 1725.14 903.367 C 1726.91 900.888 1728.08 899.469 1729.3 896.652 C 1722.03 901.029 1714.35 916.038 1700.55 922.031 L 1700.22 921.241 C 1709.45 912.805 1717.58 906.324 1722.21 894.718 C 1729.7 875.813 1726.23 850.912 1712.08 835.528 C 1687.95 809.294 1654.29 787.05 1625.74 765.489 L 1509.16 676.94 C 1284.57 506.315 1058.92 337.095 832.215 169.29 C 802.613 147.237 772.99 125.119 743.188 103.329 C 736.766 98.634 711.87 83.9529 710.071 79.7391 z"/>
<path transform="translate(0,0)" fill="rgb(71,70,71)" d="M 1083.52 1204.69 C 1103.95 1221.41 1123.54 1236.83 1145.76 1251.15 C 1146.84 1251.84 1146.31 1256.43 1146.18 1257.56 L 1144.73 1258.7 L 1143 1258.4 C 1157 1266.19 1167.34 1271.16 1183.86 1271.89 C 1187.51 1272.05 1189.78 1271.72 1193.18 1273.46 L 1193.95 1275.07 C 1196.61 1278.08 1198.46 1279.56 1198.73 1283.62 L 1197.39 1284.62 C 1191.75 1283.39 1190.05 1281.72 1185.67 1283.16 L 1184.1 1285.64 L 1180.26 1288.2 C 1179.57 1286.04 1179.48 1284.93 1177.7 1283.55 L 1175.06 1284 L 1170.56 1286.53 C 1168.41 1285.91 1169.2 1286.52 1167.96 1284.86 L 1153.42 1299.12 C 1127.84 1289.17 1096.17 1263.05 1074.8 1244.75 C 1076.79 1237.43 1069.93 1231.8 1074.21 1223.87 C 1073.28 1218.67 1079.85 1208.38 1083.52 1204.69 z"/>
<path transform="translate(0,0)" fill="rgb(28,28,28)" d="M 1074.8 1244.75 C 1076.79 1237.43 1069.93 1231.8 1074.21 1223.87 C 1098.89 1243.14 1121.2 1264.83 1150.46 1277.24 C 1155.51 1279.38 1167.3 1281.14 1167.96 1284.86 L 1153.42 1299.12 C 1127.84 1289.17 1096.17 1263.05 1074.8 1244.75 z"/>
<path transform="translate(0,0)" fill="rgb(91,92,93)" d="M 1175.06 1284 C 1173.35 1283.61 1173.43 1283.53 1172 1282.46 C 1174.44 1271.66 1186.29 1274.99 1193.95 1275.07 C 1196.61 1278.08 1198.46 1279.56 1198.73 1283.62 L 1197.39 1284.62 C 1191.75 1283.39 1190.05 1281.72 1185.67 1283.16 L 1184.1 1285.64 L 1180.26 1288.2 C 1179.57 1286.04 1179.48 1284.93 1177.7 1283.55 L 1175.06 1284 z"/>
<path transform="translate(0,0)" fill="rgb(28,28,28)" d="M 420.779 656.386 C 433.894 662.986 472.833 698.077 486.461 709.03 L 530.479 744.088 C 538.621 750.468 554.55 762.176 560.861 769.19 C 564.358 765.1 568.136 760.953 573.609 759.862 C 576.885 761.068 575.754 760.179 577.842 763.024 C 578.095 765.471 578.273 767.478 578.366 769.936 C 580.65 771.487 582.032 771.29 584.903 771.512 C 585.581 773.713 585.443 772.906 584.212 775.599 C 580.883 777.162 580.193 777.144 576.48 777.722 C 575.085 784.346 605.385 804.114 611.165 809.316 C 644.45 839.273 683.002 864.891 716.072 894.673 L 712.617 896.559 C 699.085 887.181 677.9 868.526 664.224 857.268 C 629.068 828.329 595.92 801.181 559.475 773.801 L 557.195 775.58 L 555.818 774.76 C 550.009 770.526 543.938 765.858 538.506 761.15 C 499.355 727.214 455.565 696.299 416.722 662.319 L 417.981 658.305 L 420.779 656.386 z"/>
<path transform="translate(0,0)" fill="rgb(11,11,11)" d="M 417.981 658.305 C 427.348 663.763 556.912 769.927 558.026 772.075 C 557.215 774.393 557.932 773.529 555.818 774.76 C 550.009 770.526 543.938 765.858 538.506 761.15 C 499.355 727.214 455.565 696.299 416.722 662.319 L 417.981 658.305 z"/>
<path transform="translate(0,0)" fill="rgb(204,205,206)" d="M 1730.68 836.962 C 1760.03 879.385 1738.97 912.031 1702.68 940.593 C 1696.98 945.079 1689.45 949.894 1684.13 954.468 C 1677.18 958.06 1663.92 967.899 1657 972.796 L 1611.41 1005.07 C 1604.1 1010.24 1573.46 1030.86 1569.15 1035.38 C 1557.61 1041.4 1524.75 1066.66 1512.55 1075.08 L 1360.39 1181.63 C 1336.13 1198.65 1299.51 1226.18 1274.32 1239.39 L 1272.43 1237.59 C 1296.51 1223.91 1327.16 1201.35 1350.35 1185.2 L 1482.56 1092.77 L 1625 992.922 C 1636.3 985.018 1647.67 977.078 1658.95 969.158 C 1691.39 946.395 1718.12 931.369 1737.59 895.628 L 1736.6 894.152 C 1743.49 875.032 1738.69 857.98 1729.89 840.45 C 1729.89 840.45 1730.6 837.275 1730.68 836.962 z"/>
<path transform="translate(0,0)" fill="rgb(91,92,93)" d="M 1746.49 894.561 C 1748.25 892.988 1748.8 892.086 1749.92 890.005 L 1751.25 889.395 L 1750.06 891.709 L 1751.39 892.799 C 1750.83 894.24 1750.18 895.76 1749.78 897.236 C 1746.91 900.764 1743.79 910.668 1741.36 915.665 C 1727.64 939.452 1687.51 964.142 1665.04 980.199 L 1546.05 1064.6 L 1405.7 1163.59 L 1343.23 1207.58 C 1300.11 1237.8 1258.98 1266.47 1203.9 1265.88 C 1199.73 1265.02 1196.84 1264.57 1192.56 1264.14 C 1195.37 1263.31 1196.9 1263.11 1199.81 1262.68 L 1202.83 1262.88 C 1220.01 1264.59 1251.73 1258.74 1267.43 1251.42 C 1309.95 1231.57 1349.11 1200.92 1387.66 1173.76 C 1443.09 1135.24 1498.16 1096.22 1552.87 1056.69 L 1666.73 976.521 C 1687.65 961.486 1710.18 947.465 1727.84 928.566 C 1738.05 917.644 1741.54 908.208 1746.49 894.561 z"/>
<path transform="translate(0,0)" fill="url(#Gradient3)" d="M 129.764 421.543 C 131.821 426.764 135.578 437.385 139.178 441.207 C 148.736 454.192 168.525 465.457 171.601 471.551 L 170.618 474.841 C 169.295 481.902 172.325 482.375 168.808 485.629 C 169.58 490.317 171.155 498.416 171.127 502.877 C 155.348 489.246 143.58 478.293 133.124 460.031 C 131.536 457.268 129.98 453.955 128.537 451.071 L 131.117 449.094 C 133.693 442.76 129.349 431.224 129.764 421.543 z"/>
<path transform="translate(0,0)" fill="rgb(28,28,28)" d="M 133.124 460.031 C 140.436 463.641 163.57 480.077 168.808 485.629 C 169.58 490.317 171.155 498.416 171.127 502.877 C 155.348 489.246 143.58 478.293 133.124 460.031 z"/>
<path transform="translate(0,0)" fill="rgb(47,47,48)" d="M 1684.13 954.468 C 1686.14 955.123 1686.76 955.285 1688.96 955.046 C 1687.89 957.831 1685.61 958.653 1683.06 960.255 C 1651.45 980.065 1612.32 1013.28 1581.74 1031.64 L 1582.3 1029.7 C 1584.15 1028.68 1589.49 1024.77 1590.33 1022.97 L 1588.95 1022.59 L 1588 1023.47 C 1583.56 1027.56 1575.08 1034.19 1569.15 1035.38 C 1573.46 1030.86 1604.1 1010.24 1611.41 1005.07 L 1657 972.796 C 1663.92 967.899 1677.18 958.06 1684.13 954.468 z"/>
<path transform="translate(0,0)" fill="url(#Gradient2)" d="M 129.764 421.543 C 129.43 417.895 128.775 414.747 129.938 411.354 C 132.297 413.247 132.728 415.864 134.017 419.045 L 135.624 417.73 C 149.082 441.217 154.702 447.142 175.539 464.761 C 174.574 466.597 172.898 470.213 171.601 471.551 C 168.525 465.457 148.736 454.192 139.178 441.207 C 135.578 437.385 131.821 426.764 129.764 421.543 z"/>
<path transform="translate(0,0)" fill="rgb(28,28,28)" d="M 129.764 421.543 C 129.43 417.895 128.775 414.747 129.938 411.354 C 132.297 413.247 132.728 415.864 134.017 419.045 C 137.114 425.92 144.87 436.134 145.311 440.219 C 142.854 441.778 142.679 441.197 139.178 441.207 C 135.578 437.385 131.821 426.764 129.764 421.543 z"/>
<path transform="translate(0,0)" fill="rgb(165,165,166)" d="M 128.537 451.071 C 113.367 413.808 131.538 369.697 162.356 346.216 L 161.383 350.804 C 141.036 366.504 124.664 391.827 135.624 417.73 L 134.017 419.045 C 132.728 415.864 132.297 413.247 129.938 411.354 C 128.775 414.747 129.43 417.895 129.764 421.543 C 129.349 431.224 133.693 442.76 131.117 449.094 L 128.537 451.071 z"/>
<path transform="translate(0,0)" fill="rgb(47,47,48)" d="M 716.072 894.673 C 719.116 891.693 720.782 889.802 724.574 887.696 L 723.555 894.018 L 724.733 895.543 C 727.229 895.697 728.137 894.75 730.258 893.369 L 731.175 894.613 C 730.531 896.79 728.963 900.337 729.72 901.904 C 732.698 901.487 733.396 900.378 735.75 898.234 L 737.045 901.332 C 734.688 904.307 733.726 905.204 732.943 908.972 L 731.6 911.857 C 728.303 909.889 716.188 899.507 712.617 896.559 L 716.072 894.673 z"/>
<path transform="translate(0,0)" fill="rgb(28,28,28)" d="M 419.885 628.748 L 430.087 637.252 C 427.777 642.252 431.138 642.349 428.883 649.83 L 427.2 650.04 C 421.928 646.765 416.753 640.911 412.333 636.365 L 419.885 628.748 z"/>
<path transform="translate(0,0)" fill="url(#Gradient1)" d="M 400.842 649.843 L 403.552 648.269 C 403.88 645.742 404.02 645.273 405.396 643.133 C 408.859 644.052 418.18 653.459 420.779 656.386 L 417.981 658.305 L 416.722 662.319 C 413.665 658.744 405.011 652.878 400.842 649.843 z"/>
<path transform="translate(0,0)" fill="rgb(28,28,28)" d="M 1193.18 1273.46 L 1194.07 1272.3 C 1193.95 1270.34 1188.99 1265.39 1187.24 1263.23 L 1188.06 1262.07 C 1192.71 1261.2 1195.16 1261.88 1199.81 1262.68 C 1196.9 1263.11 1195.37 1263.31 1192.56 1264.14 C 1196.84 1264.57 1199.73 1265.02 1203.9 1265.88 C 1204.31 1269.7 1204.39 1270.67 1205.72 1274.24 C 1201.7 1274.04 1197.57 1273.44 1193.95 1275.07 L 1193.18 1273.46 z"/>
<path transform="translate(0,0)" fill="rgb(28,28,28)" d="M 263.747 503.161 C 267.612 506.326 277.114 513.652 280.337 516.763 C 278.414 518.622 277.54 519.93 274.928 520.244 C 266.94 517.546 262.462 511.583 263.747 503.161 z"/>
<path transform="translate(0,0)" fill="rgb(28,28,28)" d="M 728.396 879.449 C 734.233 884.091 742.202 890.056 747.668 894.862 C 743.218 896.064 742.35 896.142 738.952 899.433 L 738.319 900.038 C 737.894 900.469 737.47 900.901 737.045 901.332 L 735.75 898.234 C 741.402 891.652 729.496 890.563 728.396 879.449 z"/>
<path transform="translate(0,0)" fill="rgb(91,92,93)" d="M 185.943 330.324 L 187.147 331.53 C 181.609 336.779 168.48 345.269 161.383 350.804 L 162.356 346.216 C 166.209 342.016 180.64 333.38 185.943 330.324 z"/>
<path transform="translate(0,0)" fill="rgb(28,28,28)" d="M 1199.81 1262.68 C 1198.79 1258.94 1198.08 1257.49 1199.52 1253.79 L 1201.33 1252.17 C 1205.51 1254.42 1203.8 1258.9 1202.83 1262.88 L 1199.81 1262.68 z"/>
<path transform="translate(0,0)" fill="rgb(139,138,139)" d="M 1272.43 1237.59 L 1274.32 1239.39 C 1270.94 1240.87 1265.85 1243.33 1262.28 1243.09 C 1264.34 1240.63 1269.26 1238.97 1272.43 1237.59 z"/>
<path transform="translate(0,0)" fill="rgb(91,92,93)" d="M 453.099 202.858 C 456.291 203.453 457.683 204.421 459.093 207.16 C 455.925 212.807 396.167 246.219 385.61 251.303 C 382.101 250.501 380.529 248.869 380.115 245.375 C 385.412 240.11 443.86 207.368 453.099 202.858 z"/>
<path transform="translate(0,0)" fill="rgb(165,165,166)" d="M 1742.61 850.867 C 1763.96 874.094 1761.66 919.136 1746.62 945.408 C 1742.94 934.838 1758.27 911.994 1749.63 898.927 L 1749.78 897.236 C 1750.18 895.76 1750.83 894.24 1751.39 892.799 L 1750.06 891.709 L 1751.25 889.395 L 1749.92 890.005 C 1748.8 892.086 1748.25 892.988 1746.49 894.561 C 1750.27 875.083 1747.88 870.166 1742.61 850.867 z"/>
<path transform="translate(0,0)" fill="rgb(47,47,48)" d="M 1067.28 1191.08 L 1071.03 1193.9 C 1075.03 1197.26 1079.15 1200.62 1082.87 1204.28 L 1083.52 1204.69 C 1079.85 1208.38 1073.28 1218.67 1074.21 1223.87 C 1069.93 1231.8 1076.79 1237.43 1074.8 1244.75 L 1066.85 1238.54 C 1065.18 1230.31 1066.26 1221.62 1062.02 1214.8 C 1062.87 1213.99 1067.15 1206.41 1068.51 1204.39 C 1071.07 1198.03 1070.33 1196.76 1067.28 1191.08 z"/>
<path transform="translate(0,0)" fill="rgb(47,47,48)" d="M 1071.03 1193.9 C 1075.03 1197.26 1079.15 1200.62 1082.87 1204.28 C 1079.27 1204.62 1078.56 1204.75 1075.03 1204.24 C 1072.19 1201.97 1071.9 1197.76 1071.03 1193.9 z"/>
<path transform="translate(0,0)" fill="rgb(181,181,181)" fill-opacity="0.698039" d="M 170.932 372.048 C 170.017 384.673 169.111 407.863 173.712 419.8 C 173.526 419.319 187.203 432.12 189.27 435.323 C 182.336 431.988 182.681 428.927 178.4 426.187 C 170.226 420.955 173.137 418.504 169.678 414.453 L 165.985 414.352 C 163.432 410.855 164.108 381.994 164.533 376.013 C 166.809 373.004 167.117 373.566 170.932 372.048 z"/>
</svg>