<svg version="1.1" xmlns="http://www.w3.org/2000/svg" style="display: block;" viewBox="0 0 2048 1365" width="612" height="408" preserveAspectRatio="none">
<path transform="translate(0,0)" fill="rgb(12,11,12)" d="M 839.549 132.519 C 856.56 120.308 885.116 116.432 905.128 111.154 C 931.378 104.005 961.158 94.9264 988.368 98.5074 C 1009.13 101.24 1036.48 117.644 1047.17 136.152 C 1077.09 187.944 1105.59 243.04 1134.22 295.557 L 1272.6 551.63 L 1310.86 621.98 C 1317.64 634.199 1355.99 701.286 1356.86 711.478 C 1364.22 720.329 1372.38 738.397 1378.15 749.018 C 1394.39 779.371 1415.47 806.72 1427.72 839.093 C 1430.45 846.306 1440.79 857.641 1444.09 865.276 C 1455.85 892.485 1469.51 917.179 1486.14 941.698 C 1490.41 947.999 1492.8 959.259 1495.94 966.475 C 1500.64 977.445 1504.06 985.956 1507.02 997.607 C 1510.09 1005.37 1509.1 1006.04 1510.44 1013.7 C 1508.19 1043.29 1497.6 1061.02 1475.33 1080.12 C 1459.33 1093.84 1385.73 1122.88 1361.69 1133.38 C 1333.89 1145.53 1306.53 1158.59 1278.58 1170.41 C 1252.32 1182.81 1215.22 1199.66 1187.88 1209.98 C 1178.51 1214.29 1169.12 1218.56 1159.7 1222.76 C 1124.59 1236.49 1105.63 1255.3 1062.68 1243.42 C 1038.86 1236.85 1018.59 1221.14 1006.26 1199.72 C 990.735 1174.71 976.757 1144.8 964.022 1118.1 L 931.756 1051.48 L 820.415 821.498 L 642.123 456.883 L 596.564 364.229 C 577.71 326.253 549.566 285.617 562.628 241.738 C 564.956 233.92 570.131 218.838 575.38 212.778 C 588.684 184.663 649.892 170.721 678.549 171.887 C 683.892 168.974 702.934 166.547 710.053 164.276 C 740.798 154.467 772.615 147.447 804.119 140.483 C 813.377 138.437 830.816 132.871 839.549 132.519 z"/>
<path transform="translate(0,0)" fill="rgb(243,243,243)" d="M 575.38 212.778 L 577.123 213.23 C 581.745 207.727 595.649 191.297 602.799 190.889 L 603.643 191.843 L 602.776 192.406 C 593.899 198.151 586.435 205.827 580.939 214.86 L 581.201 216.006 L 582.352 216.064 C 566.29 255.492 590.112 284.321 606.816 319.479 C 629.187 366.532 652.035 413.358 675.356 459.948 L 841.103 796.232 L 961.248 1040.92 L 999.782 1119.23 C 1018.58 1157.95 1030 1194.43 1072.93 1211.77 C 1112.8 1227.88 1135.6 1214.48 1171.65 1199.02 C 1251.35 1165.59 1330.61 1131.13 1409.42 1095.65 C 1419.16 1091.24 1430.73 1086.61 1440.65 1082.7 C 1487.76 1064.12 1508.81 1052.46 1507.02 997.607 C 1510.09 1005.37 1509.1 1006.04 1510.44 1013.7 C 1508.19 1043.29 1497.6 1061.02 1475.33 1080.12 C 1459.33 1093.84 1385.73 1122.88 1361.69 1133.38 C 1333.89 1145.53 1306.53 1158.59 1278.58 1170.41 C 1252.32 1182.81 1215.22 1199.66 1187.88 1209.98 C 1178.51 1214.29 1169.12 1218.56 1159.7 1222.76 C 1124.59 1236.49 1105.63 1255.3 1062.68 1243.42 C 1038.86 1236.85 1018.59 1221.14 1006.26 1199.72 C 990.735 1174.71 976.757 1144.8 964.022 1118.1 L 931.756 1051.48 L 820.415 821.498 L 642.123 456.883 L 596.564 364.229 C 577.71 326.253 549.566 285.617 562.628 241.738 C 564.956 233.92 570.131 218.838 575.38 212.778 z"/>
<path transform="translate(0,0)" fill="rgb(161,148,160)" d="M 1006.26 1199.72 C 1011.75 1204.63 1026.8 1222.95 1033.98 1226.16 C 1034.14 1226.23 1037.69 1225.18 1038.38 1224.97 C 1041.76 1226.01 1044.36 1227.33 1047.5 1226.17 L 1047.57 1224.98 L 1043.44 1223.61 L 1042.78 1221.43 L 1043.9 1219.63 C 1045.76 1219.53 1056.63 1225.81 1059.55 1227.17 C 1098.38 1245.18 1122.02 1233.16 1156.72 1218.35 L 1156.75 1220.51 C 1157.75 1221.33 1158.59 1222.12 1159.7 1222.76 C 1124.59 1236.49 1105.63 1255.3 1062.68 1243.42 C 1038.86 1236.85 1018.59 1221.14 1006.26 1199.72 z"/>
<path transform="translate(0,0)" fill="rgb(161,148,160)" d="M 1183.15 1207.07 C 1206.68 1199.58 1258.04 1170.31 1278.58 1170.41 C 1252.32 1182.81 1215.22 1199.66 1187.88 1209.98 L 1183.15 1207.07 z"/>
<path transform="translate(0,0)" fill="rgb(163,140,159)" d="M 1183.15 1207.07 L 1187.88 1209.98 C 1178.51 1214.29 1169.12 1218.56 1159.7 1222.76 C 1158.59 1222.12 1157.75 1221.33 1156.75 1220.51 L 1156.72 1218.35 C 1165.59 1214 1173.97 1210.72 1183.15 1207.07 z"/>
<path transform="translate(0,0)" fill="rgb(233,219,241)" d="M 839.549 132.519 C 856.56 120.308 885.116 116.432 905.128 111.154 C 931.378 104.005 961.158 94.9264 988.368 98.5074 C 1009.13 101.24 1036.48 117.644 1047.17 136.152 C 1077.09 187.944 1105.59 243.04 1134.22 295.557 L 1272.6 551.63 L 1310.86 621.98 C 1317.64 634.199 1355.99 701.286 1356.86 711.478 C 1354.87 710.323 1327.19 660.032 1323.46 653.097 C 1252.69 521.434 1180.24 390.606 1109.23 259.054 C 1101.85 245.391 1093.44 231.605 1085.95 217.584 C 1072.71 192.801 1058.09 168.93 1045.45 143.745 C 1041.67 136.214 1028.12 124.338 1021.33 119.175 C 986.694 94.7137 957.08 103.263 920.484 112.711 L 868.104 126.085 C 861.852 127.645 845.246 132.473 839.549 132.519 z"/>
<path transform="translate(0,0)" fill="rgb(233,219,241)" d="M 575.38 212.778 C 588.684 184.663 649.892 170.721 678.549 171.887 C 650.79 183.529 618.965 179.641 595.64 200.993 C 589.626 206.499 587.102 211.272 582.352 216.064 L 581.201 216.006 L 580.939 214.86 C 586.435 205.827 593.899 198.151 602.776 192.406 L 603.643 191.843 L 602.799 190.889 C 595.649 191.297 581.745 207.727 577.123 213.23 L 575.38 212.778 z"/>
<path transform="translate(0,0)" fill="rgb(243,243,243)" d="M 971.113 118.257 C 997.117 115.891 1016.86 124.046 1033.08 145.658 C 1039.4 154.07 1044.2 165.844 1049.39 175.299 L 1088.94 248.303 L 1208.35 468.378 L 1404.54 829.868 L 1452.15 917.331 C 1465.07 940.625 1478.22 964.064 1489.95 988.003 C 1494.28 997.438 1494.64 1008.98 1493.07 1019.02 C 1491.1 1031.67 1483.28 1045.16 1472.19 1051.93 C 1462.29 1057.96 1449.73 1062.83 1438.96 1067.42 C 1418.79 1076.15 1398.49 1084.57 1378.07 1092.68 C 1346.5 1105.44 1313.84 1119.67 1282.03 1132.86 L 1172.53 1177.81 C 1154.69 1185.11 1136.59 1193.82 1118.33 1199.73 C 1107.47 1203.25 1096.46 1201.39 1085.45 1199.46 C 1067.85 1195.47 1052.28 1182.9 1044.01 1166.96 C 1014.1 1109.33 985.752 1050.88 956.512 992.92 L 719.842 515.547 L 640.927 356.015 C 633.066 340.248 591.1 260.028 589.255 246.731 C 587.83 237.121 590.345 227.343 596.23 219.613 C 608.569 203.722 651.704 195.597 671.685 193.202 C 687.188 208.863 687.965 223.906 716.464 219.643 C 730.763 217.504 742.885 214.219 756.827 210.598 L 809.162 196.997 C 840.451 188.873 871.822 180.858 903.263 173.354 C 911.717 171.336 920.426 167.297 924.817 159.587 C 929.919 152.564 918.012 138.94 923.096 133.184 C 930.446 124.861 961.206 120.045 971.113 118.257 z"/>
</svg>